<svg xmlns="http://www.w3.org/2000/svg" xmlns:xlink="http://www.w3.org/1999/xlink" width="1000" zoomAndPan="magnify" viewBox="0 0 750 149.999998" height="200" preserveAspectRatio="xMidYMid meet" version="1.0"><defs><g/></defs><path fill="#009688" d="M 115.4375 74.15625 C 116.546875 68.773438 117.011719 63.5 116.601562 58.695312 C 116.527344 57.835938 115.808594 57.179688 114.949219 57.183594 L 95.128906 57.183594 L 103.910156 30.328125 C 105.457031 25.566406 103.449219 20.375 99.101562 17.894531 C 94.039062 15.007812 87.589844 16.773438 84.703125 21.835938 L 64.554688 57.183594 L 3.058594 57.183594 C 2.230469 57.183594 1.527344 57.804688 1.421875 58.628906 C 0.804688 63.488281 1.078125 68.75 2.023438 74.089844 C 2.023438 74.089844 2.023438 74.09375 2.023438 74.097656 C 2.023438 74.171875 2.039062 74.246094 2.066406 74.316406 C 5.421875 92.886719 16.90625 112.296875 27.636719 118.738281 C 27.894531 118.890625 28.1875 118.976562 28.488281 118.976562 L 89.515625 118.976562 C 89.847656 118.976562 90.171875 118.875 90.445312 118.6875 C 100.394531 111.890625 111.445312 92.769531 115.3125 74.734375 C 115.394531 74.554688 115.433594 74.359375 115.4375 74.15625 Z M 4.550781 60.484375 L 92.71875 60.484375 C 92.761719 60.484375 92.808594 60.488281 92.851562 60.488281 C 92.878906 60.488281 92.90625 60.484375 92.933594 60.484375 L 113.402344 60.484375 C 113.574219 64.265625 113.21875 68.3125 112.453125 72.445312 L 6.390625 72.445312 C 5.9375 72.445312 5.5 72.472656 5.089844 72.519531 C 4.429688 68.421875 4.210938 64.355469 4.550781 60.484375 Z M 89 115.671875 L 28.960938 115.671875 C 20.203125 110.113281 9.371094 92.96875 5.6875 75.726562 C 5.917969 75.742188 6.152344 75.75 6.390625 75.75 L 111.753906 75.75 C 107.890625 92.1875 98.023438 109.199219 89 115.671875 Z M 89 115.671875 " fill-opacity="1" fill-rule="nonzero"/><g fill="#000000" fill-opacity="1"><g transform="translate(117.211948, 81.897643)"><g><path d="M 19.078125 -35.59375 C 21.054688 -35.59375 23.007812 -35.367188 24.9375 -34.921875 C 26.875 -34.472656 28.316406 -34.023438 29.265625 -33.578125 L 30.671875 -32.90625 L 26.765625 -25.078125 C 24.066406 -26.515625 21.503906 -27.234375 19.078125 -27.234375 C 17.734375 -27.234375 16.78125 -27.085938 16.21875 -26.796875 C 15.65625 -26.503906 15.375 -25.953125 15.375 -25.140625 C 15.375 -24.960938 15.394531 -24.785156 15.4375 -24.609375 C 15.476562 -24.429688 15.566406 -24.265625 15.703125 -24.109375 C 15.835938 -23.953125 15.960938 -23.816406 16.078125 -23.703125 C 16.191406 -23.585938 16.382812 -23.460938 16.65625 -23.328125 C 16.925781 -23.191406 17.140625 -23.085938 17.296875 -23.015625 C 17.453125 -22.953125 17.707031 -22.851562 18.0625 -22.71875 C 18.425781 -22.582031 18.695312 -22.476562 18.875 -22.40625 C 19.050781 -22.34375 19.351562 -22.242188 19.78125 -22.109375 C 20.207031 -21.972656 20.535156 -21.882812 20.765625 -21.84375 C 22.160156 -21.4375 23.375 -20.984375 24.40625 -20.484375 C 25.4375 -19.992188 26.523438 -19.320312 27.671875 -18.46875 C 28.816406 -17.613281 29.703125 -16.535156 30.328125 -15.234375 C 30.960938 -13.929688 31.28125 -12.445312 31.28125 -10.78125 C 31.28125 -2.914062 25.820312 1.015625 14.90625 1.015625 C 12.425781 1.015625 10.070312 0.632812 7.84375 -0.125 C 5.625 -0.894531 4.019531 -1.660156 3.03125 -2.421875 L 1.546875 -3.640625 L 6.40625 -11.796875 C 6.757812 -11.484375 7.226562 -11.113281 7.8125 -10.6875 C 8.40625 -10.257812 9.460938 -9.675781 10.984375 -8.9375 C 12.515625 -8.195312 13.84375 -7.828125 14.96875 -7.828125 C 17.4375 -7.828125 18.671875 -8.65625 18.671875 -10.3125 C 18.671875 -11.082031 18.351562 -11.679688 17.71875 -12.109375 C 17.09375 -12.535156 16.023438 -13.015625 14.515625 -13.546875 C 13.015625 -14.085938 11.835938 -14.582031 10.984375 -15.03125 C 8.828125 -16.15625 7.117188 -17.425781 5.859375 -18.84375 C 4.609375 -20.257812 3.984375 -22.132812 3.984375 -24.46875 C 3.984375 -27.976562 5.34375 -30.707031 8.0625 -32.65625 C 10.78125 -34.613281 14.453125 -35.59375 19.078125 -35.59375 Z M 19.078125 -35.59375 "/></g></g></g><g fill="#000000" fill-opacity="1"><g transform="translate(144.650072, 81.897643)"><g><path d="M 6.40625 -4.28125 C 3.164062 -7.8125 1.546875 -12.140625 1.546875 -17.265625 C 1.546875 -22.390625 3.164062 -26.722656 6.40625 -30.265625 C 9.644531 -33.816406 13.757812 -35.59375 18.75 -35.59375 C 23.332031 -35.59375 27.101562 -34.15625 30.0625 -31.28125 L 30.0625 -34.59375 L 42 -34.59375 L 42 0 L 30.203125 0 L 30.203125 -3.90625 L 30.0625 -3.90625 C 27.101562 -0.625 23.332031 1.015625 18.75 1.015625 C 13.757812 1.015625 9.644531 -0.75 6.40625 -4.28125 Z M 16.546875 -23.125 C 14.992188 -21.59375 14.21875 -19.632812 14.21875 -17.25 C 14.21875 -14.875 14.957031 -12.929688 16.4375 -11.421875 C 17.925781 -9.921875 19.882812 -9.171875 22.3125 -9.171875 C 24.65625 -9.171875 26.578125 -9.929688 28.078125 -11.453125 C 29.585938 -12.984375 30.34375 -14.921875 30.34375 -17.265625 C 30.34375 -19.640625 29.566406 -21.59375 28.015625 -23.125 C 26.460938 -24.65625 24.5625 -25.421875 22.3125 -25.421875 C 20.019531 -25.421875 18.097656 -24.65625 16.546875 -23.125 Z M 16.546875 -23.125 "/></g></g></g><g fill="#000000" fill-opacity="1"><g transform="translate(184.965042, 81.897643)"><g><path d="M 39.640625 -30.265625 C 42.878906 -26.722656 44.5 -22.390625 44.5 -17.265625 C 44.5 -12.140625 42.878906 -7.8125 39.640625 -4.28125 C 36.410156 -0.75 32.300781 1.015625 27.3125 1.015625 C 22.71875 1.015625 18.941406 -0.625 15.984375 -3.90625 L 15.84375 -3.90625 L 15.84375 0 L 4.046875 0 L 4.046875 -57.984375 L 15.984375 -57.984375 L 15.984375 -31.28125 C 18.941406 -34.15625 22.71875 -35.59375 27.3125 -35.59375 C 32.300781 -35.59375 36.410156 -33.816406 39.640625 -30.265625 Z M 29.59375 -11.421875 C 31.082031 -12.929688 31.828125 -14.875 31.828125 -17.25 C 31.828125 -19.632812 31.050781 -21.59375 29.5 -23.125 C 27.945312 -24.65625 26.023438 -25.421875 23.734375 -25.421875 C 21.484375 -25.421875 19.582031 -24.65625 18.03125 -23.125 C 16.476562 -21.59375 15.703125 -19.640625 15.703125 -17.265625 C 15.703125 -14.921875 16.457031 -12.984375 17.96875 -11.453125 C 19.476562 -9.929688 21.398438 -9.171875 23.734375 -9.171875 C 26.160156 -9.171875 28.113281 -9.921875 29.59375 -11.421875 Z M 29.59375 -11.421875 "/></g></g></g><g fill="#000000" fill-opacity="1"><g transform="translate(225.280011, 81.897643)"><g><path d="M 7.3125 -4.109375 C 3.46875 -7.523438 1.546875 -11.90625 1.546875 -17.25 C 1.546875 -22.601562 3.546875 -27 7.546875 -30.4375 C 11.546875 -33.875 16.492188 -35.59375 22.390625 -35.59375 C 28.179688 -35.59375 33.066406 -33.863281 37.046875 -30.40625 C 41.023438 -26.945312 43.015625 -22.5625 43.015625 -17.25 C 43.015625 -11.945312 41.066406 -7.578125 37.171875 -4.140625 C 33.285156 -0.703125 28.359375 1.015625 22.390625 1.015625 C 16.179688 1.015625 11.15625 -0.691406 7.3125 -4.109375 Z M 16.546875 -23.125 C 14.992188 -21.59375 14.21875 -19.632812 14.21875 -17.25 C 14.21875 -14.875 14.957031 -12.929688 16.4375 -11.421875 C 17.925781 -9.921875 19.882812 -9.171875 22.3125 -9.171875 C 24.65625 -9.171875 26.578125 -9.929688 28.078125 -11.453125 C 29.585938 -12.984375 30.34375 -14.921875 30.34375 -17.265625 C 30.34375 -19.640625 29.566406 -21.59375 28.015625 -23.125 C 26.460938 -24.65625 24.5625 -25.421875 22.3125 -25.421875 C 20.019531 -25.421875 18.097656 -24.65625 16.546875 -23.125 Z M 16.546875 -23.125 "/></g></g></g><g fill="#000000" fill-opacity="1"><g transform="translate(264.111792, 81.897643)"><g><path d="M 4.046875 0 L 4.046875 -34.59375 L 15.984375 -34.59375 L 15.984375 -29.59375 L 16.109375 -29.59375 C 16.203125 -29.78125 16.347656 -30.003906 16.546875 -30.265625 C 16.753906 -30.535156 17.191406 -31.007812 17.859375 -31.6875 C 18.535156 -32.363281 19.253906 -32.96875 20.015625 -33.5 C 20.785156 -34.039062 21.773438 -34.523438 22.984375 -34.953125 C 24.203125 -35.378906 25.441406 -35.59375 26.703125 -35.59375 C 28.003906 -35.59375 29.285156 -35.410156 30.546875 -35.046875 C 31.804688 -34.691406 32.726562 -34.335938 33.3125 -33.984375 L 34.25 -33.4375 L 29.265625 -23.328125 C 27.773438 -24.585938 25.707031 -25.21875 23.0625 -25.21875 C 21.625 -25.21875 20.382812 -24.898438 19.34375 -24.265625 C 18.3125 -23.640625 17.582031 -22.875 17.15625 -21.96875 C 16.726562 -21.070312 16.425781 -20.3125 16.25 -19.6875 C 16.070312 -19.0625 15.984375 -18.566406 15.984375 -18.203125 L 15.984375 0 Z M 4.046875 0 "/></g></g></g><g fill="#000000" fill-opacity="1"><g transform="translate(291.954431, 81.897643)"><g><path d="M 39.03125 -15.640625 L 13.953125 -15.640625 C 13.953125 -13.210938 14.738281 -11.414062 16.3125 -10.25 C 17.882812 -9.082031 19.59375 -8.5 21.4375 -8.5 C 23.375 -8.5 24.898438 -8.753906 26.015625 -9.265625 C 27.140625 -9.785156 28.425781 -10.8125 29.875 -12.34375 L 38.5 -8.015625 C 34.90625 -1.992188 28.925781 1.015625 20.5625 1.015625 C 15.351562 1.015625 10.878906 -0.769531 7.140625 -4.34375 C 3.410156 -7.914062 1.546875 -12.21875 1.546875 -17.25 C 1.546875 -22.289062 3.410156 -26.609375 7.140625 -30.203125 C 10.878906 -33.796875 15.351562 -35.59375 20.5625 -35.59375 C 26.050781 -35.59375 30.515625 -34.007812 33.953125 -30.84375 C 37.390625 -27.675781 39.109375 -23.148438 39.109375 -17.265625 C 39.109375 -16.453125 39.082031 -15.910156 39.03125 -15.640625 Z M 14.296875 -22.25 L 27.4375 -22.25 C 27.164062 -24.050781 26.457031 -25.429688 25.3125 -26.390625 C 24.164062 -27.359375 22.695312 -27.84375 20.90625 -27.84375 C 18.925781 -27.84375 17.347656 -27.328125 16.171875 -26.296875 C 15.003906 -25.265625 14.378906 -23.914062 14.296875 -22.25 Z M 14.296875 -22.25 "/></g></g></g><g fill="#000000" fill-opacity="1"><g transform="translate(326.87596, 81.897643)"><g><path d="M 19.078125 -35.59375 C 21.054688 -35.59375 23.007812 -35.367188 24.9375 -34.921875 C 26.875 -34.472656 28.316406 -34.023438 29.265625 -33.578125 L 30.671875 -32.90625 L 26.765625 -25.078125 C 24.066406 -26.515625 21.503906 -27.234375 19.078125 -27.234375 C 17.734375 -27.234375 16.78125 -27.085938 16.21875 -26.796875 C 15.65625 -26.503906 15.375 -25.953125 15.375 -25.140625 C 15.375 -24.960938 15.394531 -24.785156 15.4375 -24.609375 C 15.476562 -24.429688 15.566406 -24.265625 15.703125 -24.109375 C 15.835938 -23.953125 15.960938 -23.816406 16.078125 -23.703125 C 16.191406 -23.585938 16.382812 -23.460938 16.65625 -23.328125 C 16.925781 -23.191406 17.140625 -23.085938 17.296875 -23.015625 C 17.453125 -22.953125 17.707031 -22.851562 18.0625 -22.71875 C 18.425781 -22.582031 18.695312 -22.476562 18.875 -22.40625 C 19.050781 -22.34375 19.351562 -22.242188 19.78125 -22.109375 C 20.207031 -21.972656 20.535156 -21.882812 20.765625 -21.84375 C 22.160156 -21.4375 23.375 -20.984375 24.40625 -20.484375 C 25.4375 -19.992188 26.523438 -19.320312 27.671875 -18.46875 C 28.816406 -17.613281 29.703125 -16.535156 30.328125 -15.234375 C 30.960938 -13.929688 31.28125 -12.445312 31.28125 -10.78125 C 31.28125 -2.914062 25.820312 1.015625 14.90625 1.015625 C 12.425781 1.015625 10.070312 0.632812 7.84375 -0.125 C 5.625 -0.894531 4.019531 -1.660156 3.03125 -2.421875 L 1.546875 -3.640625 L 6.40625 -11.796875 C 6.757812 -11.484375 7.226562 -11.113281 7.8125 -10.6875 C 8.40625 -10.257812 9.460938 -9.675781 10.984375 -8.9375 C 12.515625 -8.195312 13.84375 -7.828125 14.96875 -7.828125 C 17.4375 -7.828125 18.671875 -8.65625 18.671875 -10.3125 C 18.671875 -11.082031 18.351562 -11.679688 17.71875 -12.109375 C 17.09375 -12.535156 16.023438 -13.015625 14.515625 -13.546875 C 13.015625 -14.085938 11.835938 -14.582031 10.984375 -15.03125 C 8.828125 -16.15625 7.117188 -17.425781 5.859375 -18.84375 C 4.609375 -20.257812 3.984375 -22.132812 3.984375 -24.46875 C 3.984375 -27.976562 5.34375 -30.707031 8.0625 -32.65625 C 10.78125 -34.613281 14.453125 -35.59375 19.078125 -35.59375 Z M 19.078125 -35.59375 "/></g></g></g><g fill="#000000" fill-opacity="1"><g transform="translate(354.317407, 81.897643)"><g/></g></g><g fill="#000000" fill-opacity="1"><g transform="translate(496.749363, 78.522643)"><g><path d="M 11.859375 -26.28125 C 10.972656 -26.28125 10.320312 -26.007812 9.90625 -25.46875 C 9.488281 -24.9375 9.28125 -24.285156 9.28125 -23.515625 L 9.28125 -20.703125 L 13.265625 -20.703125 C 13.796875 -20.703125 14.226562 -20.53125 14.5625 -20.1875 C 14.90625 -19.851562 15.078125 -19.429688 15.078125 -18.921875 C 15.078125 -18.421875 14.90625 -18.007812 14.5625 -17.6875 C 14.226562 -17.363281 13.796875 -17.203125 13.265625 -17.203125 L 9.28125 -17.203125 L 9.28125 -1.921875 C 9.28125 -1.390625 9.097656 -0.9375 8.734375 -0.5625 C 8.378906 -0.1875 7.921875 0 7.359375 0 C 6.816406 0 6.363281 -0.1875 6 -0.5625 C 5.644531 -0.9375 5.46875 -1.390625 5.46875 -1.921875 L 5.46875 -17.203125 L 2.96875 -17.203125 C 2.457031 -17.203125 2.03125 -17.363281 1.6875 -17.6875 C 1.34375 -18.007812 1.171875 -18.421875 1.171875 -18.921875 C 1.171875 -19.429688 1.34375 -19.851562 1.6875 -20.1875 C 2.03125 -20.53125 2.457031 -20.703125 2.96875 -20.703125 L 5.46875 -20.703125 L 5.46875 -23.515625 C 5.46875 -25.390625 6.066406 -26.878906 7.265625 -27.984375 C 8.472656 -29.097656 10.175781 -29.65625 12.375 -29.65625 C 13.289062 -29.65625 14.09375 -29.488281 14.78125 -29.15625 C 15.476562 -28.820312 15.828125 -28.320312 15.828125 -27.65625 C 15.828125 -27.144531 15.671875 -26.71875 15.359375 -26.375 C 15.054688 -26.039062 14.691406 -25.875 14.265625 -25.875 C 14.160156 -25.875 13.863281 -25.929688 13.375 -26.046875 C 12.789062 -26.203125 12.285156 -26.28125 11.859375 -26.28125 Z M 11.859375 -26.28125 "/></g></g></g><g fill="#000000" fill-opacity="1"><g transform="translate(519.6967, 78.522643)"><g><path d="M 13.34375 -21.546875 C 14.039062 -21.546875 14.644531 -21.363281 15.15625 -21 C 15.664062 -20.632812 15.921875 -20.1875 15.921875 -19.65625 C 15.921875 -19.007812 15.75 -18.519531 15.40625 -18.1875 C 15.070312 -17.851562 14.664062 -17.6875 14.1875 -17.6875 C 13.945312 -17.6875 13.582031 -17.765625 13.09375 -17.921875 C 12.53125 -18.109375 12.09375 -18.203125 11.78125 -18.203125 C 10.945312 -18.203125 10.132812 -17.914062 9.34375 -17.34375 C 8.550781 -16.769531 7.90625 -15.976562 7.40625 -14.96875 C 6.914062 -13.96875 6.671875 -12.847656 6.671875 -11.609375 L 6.671875 -1.921875 C 6.671875 -1.390625 6.488281 -0.9375 6.125 -0.5625 C 5.769531 -0.1875 5.304688 0 4.734375 0 C 4.171875 0 3.71875 -0.175781 3.375 -0.53125 C 3.03125 -0.894531 2.859375 -1.359375 2.859375 -1.921875 L 2.859375 -19.125 C 2.859375 -19.664062 3.035156 -20.125 3.390625 -20.5 C 3.753906 -20.875 4.203125 -21.0625 4.734375 -21.0625 C 5.304688 -21.0625 5.769531 -20.875 6.125 -20.5 C 6.488281 -20.125 6.671875 -19.664062 6.671875 -19.125 L 6.671875 -17.078125 C 7.265625 -18.390625 8.148438 -19.453125 9.328125 -20.265625 C 10.503906 -21.085938 11.84375 -21.515625 13.34375 -21.546875 Z M 13.34375 -21.546875 "/></g></g></g><g fill="#000000" fill-opacity="1"><g transform="translate(543.568262, 78.522643)"><g><path d="M 22.78125 -10.53125 C 22.78125 -8.4375 22.3125 -6.554688 21.375 -4.890625 C 20.4375 -3.234375 19.15625 -1.9375 17.53125 -1 C 15.914062 -0.0625 14.128906 0.40625 12.171875 0.40625 C 10.222656 0.40625 8.4375 -0.0625 6.8125 -1 C 5.1875 -1.9375 3.90625 -3.234375 2.96875 -4.890625 C 2.03125 -6.554688 1.5625 -8.4375 1.5625 -10.53125 C 1.5625 -12.613281 2.03125 -14.5 2.96875 -16.1875 C 3.90625 -17.882812 5.1875 -19.203125 6.8125 -20.140625 C 8.4375 -21.078125 10.222656 -21.546875 12.171875 -21.546875 C 14.128906 -21.546875 15.914062 -21.078125 17.53125 -20.140625 C 19.15625 -19.203125 20.4375 -17.882812 21.375 -16.1875 C 22.3125 -14.5 22.78125 -12.613281 22.78125 -10.53125 Z M 18.96875 -10.53125 C 18.96875 -11.976562 18.664062 -13.269531 18.0625 -14.40625 C 17.457031 -15.539062 16.640625 -16.421875 15.609375 -17.046875 C 14.578125 -17.679688 13.429688 -18 12.171875 -18 C 10.910156 -18 9.765625 -17.679688 8.734375 -17.046875 C 7.703125 -16.421875 6.882812 -15.539062 6.28125 -14.40625 C 5.6875 -13.269531 5.390625 -11.976562 5.390625 -10.53125 C 5.390625 -9.113281 5.6875 -7.84375 6.28125 -6.71875 C 6.882812 -5.59375 7.703125 -4.710938 8.734375 -4.078125 C 9.765625 -3.453125 10.910156 -3.140625 12.171875 -3.140625 C 13.429688 -3.140625 14.578125 -3.453125 15.609375 -4.078125 C 16.640625 -4.710938 17.457031 -5.59375 18.0625 -6.71875 C 18.664062 -7.84375 18.96875 -9.113281 18.96875 -10.53125 Z M 18.96875 -10.53125 "/></g></g></g><g fill="#000000" fill-opacity="1"><g transform="translate(575.195255, 78.522643)"><g><path d="M 13.578125 -21.546875 C 18.398438 -21.546875 20.8125 -18.648438 20.8125 -12.859375 L 20.8125 -1.921875 C 20.8125 -1.390625 20.628906 -0.9375 20.265625 -0.5625 C 19.910156 -0.1875 19.453125 0 18.890625 0 C 18.347656 0 17.894531 -0.1875 17.53125 -0.5625 C 17.175781 -0.9375 17 -1.390625 17 -1.921875 L 17 -12.8125 C 17 -14.394531 16.632812 -15.65625 15.90625 -16.59375 C 15.1875 -17.53125 14.007812 -18 12.375 -18 C 11.300781 -18 10.328125 -17.765625 9.453125 -17.296875 C 8.585938 -16.828125 7.90625 -16.195312 7.40625 -15.40625 C 6.914062 -14.613281 6.671875 -13.75 6.671875 -12.8125 L 6.671875 -1.921875 C 6.671875 -1.390625 6.488281 -0.9375 6.125 -0.5625 C 5.769531 -0.1875 5.304688 0 4.734375 0 C 4.171875 0 3.71875 -0.175781 3.375 -0.53125 C 3.03125 -0.894531 2.859375 -1.359375 2.859375 -1.921875 L 2.859375 -19.125 C 2.859375 -19.664062 3.035156 -20.125 3.390625 -20.5 C 3.753906 -20.875 4.203125 -21.0625 4.734375 -21.0625 C 5.304688 -21.0625 5.769531 -20.875 6.125 -20.5 C 6.488281 -20.125 6.671875 -19.664062 6.671875 -19.125 L 6.671875 -17.71875 C 7.367188 -18.789062 8.335938 -19.695312 9.578125 -20.4375 C 10.828125 -21.175781 12.160156 -21.546875 13.578125 -21.546875 Z M 13.578125 -21.546875 "/></g></g></g><g fill="#000000" fill-opacity="1"><g transform="translate(606.139127, 78.522643)"><g><path d="M 8.5625 -17.328125 L 8.5625 -5.34375 C 8.5625 -4 9.164062 -3.328125 10.375 -3.328125 C 10.5625 -3.328125 10.8125 -3.375 11.125 -3.46875 C 11.445312 -3.5625 11.703125 -3.609375 11.890625 -3.609375 C 12.242188 -3.609375 12.539062 -3.460938 12.78125 -3.171875 C 13.019531 -2.878906 13.140625 -2.503906 13.140625 -2.046875 C 13.140625 -1.484375 12.816406 -1 12.171875 -0.59375 C 11.535156 -0.195312 10.8125 0 10 0 C 9.125 0 8.316406 -0.09375 7.578125 -0.28125 C 6.835938 -0.46875 6.175781 -0.941406 5.59375 -1.703125 C 5.019531 -2.472656 4.734375 -3.632812 4.734375 -5.1875 L 4.734375 -17.328125 L 2.40625 -17.328125 C 1.894531 -17.328125 1.472656 -17.492188 1.140625 -17.828125 C 0.804688 -18.160156 0.640625 -18.582031 0.640625 -19.09375 C 0.640625 -19.601562 0.804688 -20.015625 1.140625 -20.328125 C 1.472656 -20.648438 1.894531 -20.8125 2.40625 -20.8125 L 4.734375 -20.8125 L 4.734375 -24.1875 C 4.734375 -24.726562 4.914062 -25.1875 5.28125 -25.5625 C 5.644531 -25.9375 6.109375 -26.125 6.671875 -26.125 C 7.203125 -26.125 7.648438 -25.9375 8.015625 -25.5625 C 8.378906 -25.1875 8.5625 -24.726562 8.5625 -24.1875 L 8.5625 -20.8125 L 11.890625 -20.8125 C 12.398438 -20.8125 12.820312 -20.644531 13.15625 -20.3125 C 13.488281 -19.976562 13.65625 -19.554688 13.65625 -19.046875 C 13.65625 -18.535156 13.488281 -18.117188 13.15625 -17.796875 C 12.820312 -17.484375 12.398438 -17.328125 11.890625 -17.328125 Z M 8.5625 -17.328125 "/></g></g></g><g fill="#000000" fill-opacity="1"><g transform="translate(628.684628, 78.522643)"><g><path d="M 21.34375 -11.328125 C 21.3125 -10.847656 21.109375 -10.441406 20.734375 -10.109375 C 20.359375 -9.773438 19.914062 -9.609375 19.40625 -9.609375 L 5.265625 -9.609375 C 5.453125 -7.648438 6.191406 -6.082031 7.484375 -4.90625 C 8.785156 -3.726562 10.375 -3.140625 12.25 -3.140625 C 13.539062 -3.140625 14.585938 -3.328125 15.390625 -3.703125 C 16.191406 -4.078125 16.898438 -4.554688 17.515625 -5.140625 C 17.921875 -5.378906 18.3125 -5.5 18.6875 -5.5 C 19.144531 -5.5 19.523438 -5.335938 19.828125 -5.015625 C 20.140625 -4.703125 20.296875 -4.328125 20.296875 -3.890625 C 20.296875 -3.328125 20.023438 -2.820312 19.484375 -2.375 C 18.710938 -1.59375 17.679688 -0.929688 16.390625 -0.390625 C 15.109375 0.140625 13.796875 0.40625 12.453125 0.40625 C 10.285156 0.40625 8.378906 -0.046875 6.734375 -0.953125 C 5.085938 -1.867188 3.8125 -3.144531 2.90625 -4.78125 C 2.007812 -6.414062 1.5625 -8.265625 1.5625 -10.328125 C 1.5625 -12.578125 2.023438 -14.550781 2.953125 -16.25 C 3.878906 -17.957031 5.097656 -19.265625 6.609375 -20.171875 C 8.117188 -21.085938 9.75 -21.546875 11.5 -21.546875 C 13.207031 -21.546875 14.8125 -21.101562 16.3125 -20.21875 C 17.8125 -19.332031 19.015625 -18.109375 19.921875 -16.546875 C 20.835938 -14.992188 21.3125 -13.253906 21.34375 -11.328125 Z M 11.5 -18 C 10 -18 8.695312 -17.578125 7.59375 -16.734375 C 6.5 -15.890625 5.773438 -14.582031 5.421875 -12.8125 L 17.28125 -12.8125 L 17.28125 -13.140625 C 17.144531 -14.554688 16.503906 -15.71875 15.359375 -16.625 C 14.222656 -17.539062 12.9375 -18 11.5 -18 Z M 11.5 -18 "/></g></g></g><g fill="#000000" fill-opacity="1"><g transform="translate(658.865008, 78.522643)"><g><path d="M 6.46875 -1.921875 C 6.46875 -1.390625 6.285156 -0.9375 5.921875 -0.5625 C 5.566406 -0.1875 5.109375 0 4.546875 0 C 4.003906 0 3.550781 -0.1875 3.1875 -0.5625 C 2.832031 -0.9375 2.65625 -1.390625 2.65625 -1.921875 L 2.65625 -19.328125 C 2.65625 -19.867188 2.832031 -20.328125 3.1875 -20.703125 C 3.550781 -21.078125 4.003906 -21.265625 4.546875 -21.265625 C 5.109375 -21.265625 5.566406 -21.078125 5.921875 -20.703125 C 6.285156 -20.328125 6.46875 -19.867188 6.46875 -19.328125 Z M 4.546875 -23.90625 C 3.765625 -23.90625 3.207031 -24.046875 2.875 -24.328125 C 2.539062 -24.609375 2.375 -25.0625 2.375 -25.6875 L 2.375 -26.328125 C 2.375 -26.960938 2.550781 -27.414062 2.90625 -27.6875 C 3.269531 -27.957031 3.828125 -28.09375 4.578125 -28.09375 C 5.328125 -28.09375 5.867188 -27.953125 6.203125 -27.671875 C 6.535156 -27.390625 6.703125 -26.941406 6.703125 -26.328125 L 6.703125 -25.6875 C 6.703125 -25.039062 6.53125 -24.582031 6.1875 -24.3125 C 5.84375 -24.039062 5.296875 -23.90625 4.546875 -23.90625 Z M 4.546875 -23.90625 "/></g></g></g><g fill="#000000" fill-opacity="1"><g transform="translate(675.262411, 78.522643)"><g><path d="M 13.34375 -21.546875 C 14.039062 -21.546875 14.644531 -21.363281 15.15625 -21 C 15.664062 -20.632812 15.921875 -20.1875 15.921875 -19.65625 C 15.921875 -19.007812 15.75 -18.519531 15.40625 -18.1875 C 15.070312 -17.851562 14.664062 -17.6875 14.1875 -17.6875 C 13.945312 -17.6875 13.582031 -17.765625 13.09375 -17.921875 C 12.53125 -18.109375 12.09375 -18.203125 11.78125 -18.203125 C 10.945312 -18.203125 10.132812 -17.914062 9.34375 -17.34375 C 8.550781 -16.769531 7.90625 -15.976562 7.40625 -14.96875 C 6.914062 -13.96875 6.671875 -12.847656 6.671875 -11.609375 L 6.671875 -1.921875 C 6.671875 -1.390625 6.488281 -0.9375 6.125 -0.5625 C 5.769531 -0.1875 5.304688 0 4.734375 0 C 4.171875 0 3.71875 -0.175781 3.375 -0.53125 C 3.03125 -0.894531 2.859375 -1.359375 2.859375 -1.921875 L 2.859375 -19.125 C 2.859375 -19.664062 3.035156 -20.125 3.390625 -20.5 C 3.753906 -20.875 4.203125 -21.0625 4.734375 -21.0625 C 5.304688 -21.0625 5.769531 -20.875 6.125 -20.5 C 6.488281 -20.125 6.671875 -19.664062 6.671875 -19.125 L 6.671875 -17.078125 C 7.265625 -18.390625 8.148438 -19.453125 9.328125 -20.265625 C 10.503906 -21.085938 11.84375 -21.515625 13.34375 -21.546875 Z M 13.34375 -21.546875 "/></g></g></g><g fill="#000000" fill-opacity="1"><g transform="translate(699.133972, 78.522643)"><g><path d="M 19.9375 -21.34375 C 20.5 -21.34375 20.957031 -21.160156 21.3125 -20.796875 C 21.675781 -20.429688 21.859375 -19.957031 21.859375 -19.375 L 21.859375 -1.921875 C 21.859375 -1.390625 21.675781 -0.9375 21.3125 -0.5625 C 20.957031 -0.1875 20.5 0 19.9375 0 C 19.375 0 18.914062 -0.175781 18.5625 -0.53125 C 18.21875 -0.894531 18.046875 -1.359375 18.046875 -1.921875 L 18.046875 -2.96875 C 17.347656 -2.03125 16.394531 -1.234375 15.1875 -0.578125 C 13.976562 0.078125 12.679688 0.40625 11.296875 0.40625 C 9.472656 0.40625 7.816406 -0.0625 6.328125 -1 C 4.835938 -1.9375 3.671875 -3.242188 2.828125 -4.921875 C 1.984375 -6.597656 1.5625 -8.476562 1.5625 -10.5625 C 1.5625 -12.65625 1.984375 -14.539062 2.828125 -16.21875 C 3.671875 -17.894531 4.828125 -19.203125 6.296875 -20.140625 C 7.773438 -21.078125 9.398438 -21.546875 11.171875 -21.546875 C 12.585938 -21.546875 13.90625 -21.25 15.125 -20.65625 C 16.34375 -20.0625 17.316406 -19.3125 18.046875 -18.40625 L 18.046875 -19.375 C 18.046875 -19.9375 18.21875 -20.40625 18.5625 -20.78125 C 18.914062 -21.15625 19.375 -21.34375 19.9375 -21.34375 Z M 11.734375 -3.140625 C 12.992188 -3.140625 14.113281 -3.457031 15.09375 -4.09375 C 16.070312 -4.738281 16.832031 -5.625 17.375 -6.75 C 17.925781 -7.875 18.203125 -9.144531 18.203125 -10.5625 C 18.203125 -11.957031 17.925781 -13.21875 17.375 -14.34375 C 16.832031 -15.46875 16.070312 -16.359375 15.09375 -17.015625 C 14.113281 -17.671875 12.992188 -18 11.734375 -18 C 10.472656 -18 9.351562 -17.675781 8.375 -17.03125 C 7.394531 -16.394531 6.628906 -15.515625 6.078125 -14.390625 C 5.535156 -13.265625 5.265625 -11.988281 5.265625 -10.5625 C 5.265625 -9.144531 5.535156 -7.875 6.078125 -6.75 C 6.628906 -5.625 7.394531 -4.738281 8.375 -4.09375 C 9.351562 -3.457031 10.472656 -3.140625 11.734375 -3.140625 Z M 11.734375 -3.140625 "/></g></g></g><g fill="#000000" fill-opacity="1"><g transform="translate(731.082419, 78.522643)"><g><path d="M 1.640625 -3.296875 C 1.398438 -3.671875 1.28125 -4.03125 1.28125 -4.375 C 1.28125 -4.914062 1.5625 -5.375 2.125 -5.75 C 2.394531 -5.9375 2.703125 -6.03125 3.046875 -6.03125 C 3.535156 -6.03125 3.976562 -5.828125 4.375 -5.421875 C 5.1875 -4.515625 6.050781 -3.832031 6.96875 -3.375 C 7.894531 -2.914062 9 -2.6875 10.28125 -2.6875 C 11.300781 -2.71875 12.195312 -2.953125 12.96875 -3.390625 C 13.75 -3.835938 14.140625 -4.554688 14.140625 -5.546875 C 14.140625 -6.453125 13.742188 -7.144531 12.953125 -7.625 C 12.171875 -8.113281 11.015625 -8.5625 9.484375 -8.96875 C 7.984375 -9.363281 6.738281 -9.78125 5.75 -10.21875 C 4.757812 -10.664062 3.921875 -11.3125 3.234375 -12.15625 C 2.546875 -13 2.203125 -14.101562 2.203125 -15.46875 C 2.203125 -16.675781 2.546875 -17.734375 3.234375 -18.640625 C 3.921875 -19.554688 4.832031 -20.269531 5.96875 -20.78125 C 7.101562 -21.289062 8.34375 -21.546875 9.6875 -21.546875 C 10.96875 -21.546875 12.242188 -21.300781 13.515625 -20.8125 C 14.796875 -20.332031 15.835938 -19.597656 16.640625 -18.609375 C 16.960938 -18.234375 17.125 -17.84375 17.125 -17.4375 C 17.125 -17.007812 16.910156 -16.597656 16.484375 -16.203125 C 16.210938 -15.953125 15.875 -15.828125 15.46875 -15.828125 C 14.988281 -15.828125 14.601562 -15.988281 14.3125 -16.3125 C 13.75 -16.957031 13.054688 -17.453125 12.234375 -17.796875 C 11.421875 -18.148438 10.519531 -18.328125 9.53125 -18.328125 C 8.507812 -18.328125 7.644531 -18.117188 6.9375 -17.703125 C 6.226562 -17.285156 5.875 -16.582031 5.875 -15.59375 C 5.894531 -14.65625 6.300781 -13.957031 7.09375 -13.5 C 7.882812 -13.039062 9.097656 -12.597656 10.734375 -12.171875 C 12.148438 -11.796875 13.328125 -11.394531 14.265625 -10.96875 C 15.203125 -10.539062 15.992188 -9.90625 16.640625 -9.0625 C 17.285156 -8.21875 17.609375 -7.113281 17.609375 -5.75 C 17.609375 -4.488281 17.242188 -3.394531 16.515625 -2.46875 C 15.796875 -1.539062 14.851562 -0.828125 13.6875 -0.328125 C 12.519531 0.160156 11.28125 0.40625 9.96875 0.40625 C 8.28125 0.40625 6.71875 0.113281 5.28125 -0.46875 C 3.851562 -1.0625 2.640625 -2.003906 1.640625 -3.296875 Z M 1.640625 -3.296875 "/></g></g></g><g fill="#000000" fill-opacity="1"><g transform="translate(362.119761, 81.897643)"><g><path d="M 19.078125 -35.59375 C 21.054688 -35.59375 23.007812 -35.367188 24.9375 -34.921875 C 26.875 -34.472656 28.316406 -34.023438 29.265625 -33.578125 L 30.671875 -32.90625 L 26.765625 -25.078125 C 24.066406 -26.515625 21.503906 -27.234375 19.078125 -27.234375 C 17.734375 -27.234375 16.78125 -27.085938 16.21875 -26.796875 C 15.65625 -26.503906 15.375 -25.953125 15.375 -25.140625 C 15.375 -24.960938 15.394531 -24.785156 15.4375 -24.609375 C 15.476562 -24.429688 15.566406 -24.265625 15.703125 -24.109375 C 15.835938 -23.953125 15.960938 -23.816406 16.078125 -23.703125 C 16.191406 -23.585938 16.382812 -23.460938 16.65625 -23.328125 C 16.925781 -23.191406 17.140625 -23.085938 17.296875 -23.015625 C 17.453125 -22.953125 17.707031 -22.851562 18.0625 -22.71875 C 18.425781 -22.582031 18.695312 -22.476562 18.875 -22.40625 C 19.050781 -22.34375 19.351562 -22.242188 19.78125 -22.109375 C 20.207031 -21.972656 20.535156 -21.882812 20.765625 -21.84375 C 22.160156 -21.4375 23.375 -20.984375 24.40625 -20.484375 C 25.4375 -19.992188 26.523438 -19.320312 27.671875 -18.46875 C 28.816406 -17.613281 29.703125 -16.535156 30.328125 -15.234375 C 30.960938 -13.929688 31.28125 -12.445312 31.28125 -10.78125 C 31.28125 -2.914062 25.820312 1.015625 14.90625 1.015625 C 12.425781 1.015625 10.070312 0.632812 7.84375 -0.125 C 5.625 -0.894531 4.019531 -1.660156 3.03125 -2.421875 L 1.546875 -3.640625 L 6.40625 -11.796875 C 6.757812 -11.484375 7.226562 -11.113281 7.8125 -10.6875 C 8.40625 -10.257812 9.460938 -9.675781 10.984375 -8.9375 C 12.515625 -8.195312 13.84375 -7.828125 14.96875 -7.828125 C 17.4375 -7.828125 18.671875 -8.65625 18.671875 -10.3125 C 18.671875 -11.082031 18.351562 -11.679688 17.71875 -12.109375 C 17.09375 -12.535156 16.023438 -13.015625 14.515625 -13.546875 C 13.015625 -14.085938 11.835938 -14.582031 10.984375 -15.03125 C 8.828125 -16.15625 7.117188 -17.425781 5.859375 -18.84375 C 4.609375 -20.257812 3.984375 -22.132812 3.984375 -24.46875 C 3.984375 -27.976562 5.34375 -30.707031 8.0625 -32.65625 C 10.78125 -34.613281 14.453125 -35.59375 19.078125 -35.59375 Z M 19.078125 -35.59375 "/></g></g></g><g fill="#000000" fill-opacity="1"><g transform="translate(389.557884, 81.897643)"><g><path d="M 39.03125 -15.640625 L 13.953125 -15.640625 C 13.953125 -13.210938 14.738281 -11.414062 16.3125 -10.25 C 17.882812 -9.082031 19.59375 -8.5 21.4375 -8.5 C 23.375 -8.5 24.898438 -8.753906 26.015625 -9.265625 C 27.140625 -9.785156 28.425781 -10.8125 29.875 -12.34375 L 38.5 -8.015625 C 34.90625 -1.992188 28.925781 1.015625 20.5625 1.015625 C 15.351562 1.015625 10.878906 -0.769531 7.140625 -4.34375 C 3.410156 -7.914062 1.546875 -12.21875 1.546875 -17.25 C 1.546875 -22.289062 3.410156 -26.609375 7.140625 -30.203125 C 10.878906 -33.796875 15.351562 -35.59375 20.5625 -35.59375 C 26.050781 -35.59375 30.515625 -34.007812 33.953125 -30.84375 C 37.390625 -27.675781 39.109375 -23.148438 39.109375 -17.265625 C 39.109375 -16.453125 39.082031 -15.910156 39.03125 -15.640625 Z M 14.296875 -22.25 L 27.4375 -22.25 C 27.164062 -24.050781 26.457031 -25.429688 25.3125 -26.390625 C 24.164062 -27.359375 22.695312 -27.84375 20.90625 -27.84375 C 18.925781 -27.84375 17.347656 -27.328125 16.171875 -26.296875 C 15.003906 -25.265625 14.378906 -23.914062 14.296875 -22.25 Z M 14.296875 -22.25 "/></g></g></g><g fill="#000000" fill-opacity="1"><g transform="translate(424.479414, 81.897643)"><g><path d="M 4.046875 0 L 4.046875 -34.59375 L 15.984375 -34.59375 L 15.984375 -30.953125 L 16.109375 -30.953125 C 19.210938 -34.046875 22.519531 -35.59375 26.03125 -35.59375 C 28.539062 -35.59375 30.894531 -35.078125 33.09375 -34.046875 C 35.300781 -33.015625 36.96875 -31.421875 38.09375 -29.265625 C 41.601562 -33.484375 45.425781 -35.59375 49.5625 -35.59375 C 53.238281 -35.59375 56.40625 -34.554688 59.0625 -32.484375 C 61.71875 -30.421875 63.046875 -27.1875 63.046875 -22.78125 L 63.046875 0 L 51.109375 0 L 51.109375 -19.546875 C 51.109375 -21.390625 50.601562 -22.929688 49.59375 -24.171875 C 48.582031 -25.410156 47.0625 -26.03125 45.03125 -26.03125 C 43.28125 -26.03125 41.941406 -25.5 41.015625 -24.4375 C 40.097656 -23.382812 39.597656 -22.113281 39.515625 -20.625 L 39.515625 0 L 27.578125 0 L 27.578125 -19.546875 C 27.578125 -21.390625 27.070312 -22.929688 26.0625 -24.171875 C 25.050781 -25.410156 23.53125 -26.03125 21.5 -26.03125 C 19.664062 -26.03125 18.285156 -25.457031 17.359375 -24.3125 C 16.441406 -23.164062 15.984375 -21.804688 15.984375 -20.234375 L 15.984375 0 Z M 4.046875 0 "/></g></g></g><g fill="#009688" fill-opacity="1"><g transform="translate(120.946148, 115.737682)"><g><path d="M 9.890625 -15.046875 C 8.453125 -15.046875 7.335938 -14.503906 6.546875 -13.421875 C 5.765625 -12.347656 5.375 -10.851562 5.375 -8.9375 C 5.375 -4.925781 6.878906 -2.921875 9.890625 -2.921875 C 11.148438 -2.921875 12.675781 -3.238281 14.46875 -3.875 L 14.46875 -0.671875 C 13 -0.0546875 11.351562 0.25 9.53125 0.25 C 6.914062 0.25 4.914062 -0.539062 3.53125 -2.125 C 2.15625 -3.71875 1.46875 -5.992188 1.46875 -8.953125 C 1.46875 -10.816406 1.804688 -12.453125 2.484375 -13.859375 C 3.160156 -15.265625 4.132812 -16.34375 5.40625 -17.09375 C 6.6875 -17.84375 8.179688 -18.21875 9.890625 -18.21875 C 11.628906 -18.21875 13.378906 -17.796875 15.140625 -16.953125 L 13.921875 -13.859375 C 13.242188 -14.171875 12.566406 -14.445312 11.890625 -14.6875 C 11.210938 -14.925781 10.546875 -15.046875 9.890625 -15.046875 Z M 9.890625 -15.046875 "/></g></g></g><g fill="#009688" fill-opacity="1"><g transform="translate(139.059329, 115.737682)"><g><path d="M 18.5625 -9 C 18.5625 -6.03125 17.820312 -3.742188 16.34375 -2.140625 C 14.875 -0.546875 12.765625 0.25 10.015625 0.25 C 7.265625 0.25 5.148438 -0.546875 3.671875 -2.140625 C 2.203125 -3.742188 1.46875 -6.039062 1.46875 -9.03125 C 1.46875 -12.019531 2.203125 -14.300781 3.671875 -15.875 C 5.148438 -17.445312 7.269531 -18.234375 10.03125 -18.234375 C 12.789062 -18.234375 14.898438 -17.4375 16.359375 -15.84375 C 17.828125 -14.257812 18.5625 -11.976562 18.5625 -9 Z M 5.453125 -9 C 5.453125 -7 5.832031 -5.488281 6.59375 -4.46875 C 7.351562 -3.457031 8.492188 -2.953125 10.015625 -2.953125 C 13.046875 -2.953125 14.5625 -4.96875 14.5625 -9 C 14.5625 -13.050781 13.050781 -15.078125 10.03125 -15.078125 C 8.519531 -15.078125 7.378906 -14.566406 6.609375 -13.546875 C 5.835938 -12.523438 5.453125 -11.007812 5.453125 -9 Z M 5.453125 -9 "/></g></g></g><g fill="#009688" fill-opacity="1"><g transform="translate(161.163351, 115.737682)"><g><path d="M 13.96875 0 L 0.609375 0 L 0.609375 -2.46875 L 9.21875 -14.8125 L 0.828125 -14.8125 L 0.828125 -17.953125 L 13.734375 -17.953125 L 13.734375 -15.5 L 5.140625 -3.140625 L 13.96875 -3.140625 Z M 13.96875 0 "/></g></g></g><g fill="#009688" fill-opacity="1"><g transform="translate(177.81527, 115.737682)"><g><path d="M 2.265625 0 L 2.265625 -17.953125 L 6.0625 -17.953125 L 6.0625 0 Z M 2.265625 0 "/></g></g></g><g fill="#009688" fill-opacity="1"><g transform="translate(188.229198, 115.737682)"><g><path d="M 18.1875 0 L 13.359375 0 L 5.546875 -13.578125 L 5.421875 -13.578125 C 5.578125 -11.179688 5.65625 -9.472656 5.65625 -8.453125 L 5.65625 0 L 2.265625 0 L 2.265625 -17.953125 L 7.0625 -17.953125 L 14.859375 -4.515625 L 14.953125 -4.515625 C 14.828125 -6.847656 14.765625 -8.492188 14.765625 -9.453125 L 14.765625 -17.953125 L 18.1875 -17.953125 Z M 18.1875 0 "/></g></g></g><g fill="#009688" fill-opacity="1"><g transform="translate(210.763003, 115.737682)"><g><path d="M 16.96875 0 L 13.1875 0 L 13.1875 -7.75 L 6.0625 -7.75 L 6.0625 0 L 2.265625 0 L 2.265625 -17.953125 L 6.0625 -17.953125 L 6.0625 -10.921875 L 13.1875 -10.921875 L 13.1875 -17.953125 L 16.96875 -17.953125 Z M 16.96875 0 "/></g></g></g><g fill="#009688" fill-opacity="1"><g transform="translate(232.093415, 115.737682)"><g><path d="M 12.609375 0 L 2.265625 0 L 2.265625 -17.953125 L 12.609375 -17.953125 L 12.609375 -14.84375 L 6.0625 -14.84375 L 6.0625 -10.890625 L 12.140625 -10.890625 L 12.140625 -7.78125 L 6.0625 -7.78125 L 6.0625 -3.140625 L 12.609375 -3.140625 Z M 12.609375 0 "/></g></g></g><g fill="#009688" fill-opacity="1"><g transform="translate(248.266434, 115.737682)"><g><path d="M 5.640625 -2.640625 C 5.210938 -0.984375 4.488281 0.976562 3.46875 3.25 L 0.78125 3.25 C 1.3125 1.0625 1.722656 -0.992188 2.015625 -2.921875 L 5.453125 -2.921875 Z M 5.640625 -2.640625 "/></g></g></g><g fill="#009688" fill-opacity="1"><g transform="translate(257.648883, 115.737682)"><g/></g></g><g fill="#009688" fill-opacity="1"><g transform="translate(266.270003, 115.737682)"><g><path d="M 9.890625 -15.046875 C 8.453125 -15.046875 7.335938 -14.503906 6.546875 -13.421875 C 5.765625 -12.347656 5.375 -10.851562 5.375 -8.9375 C 5.375 -4.925781 6.878906 -2.921875 9.890625 -2.921875 C 11.148438 -2.921875 12.675781 -3.238281 14.46875 -3.875 L 14.46875 -0.671875 C 13 -0.0546875 11.351562 0.25 9.53125 0.25 C 6.914062 0.25 4.914062 -0.539062 3.53125 -2.125 C 2.15625 -3.71875 1.46875 -5.992188 1.46875 -8.953125 C 1.46875 -10.816406 1.804688 -12.453125 2.484375 -13.859375 C 3.160156 -15.265625 4.132812 -16.34375 5.40625 -17.09375 C 6.6875 -17.84375 8.179688 -18.21875 9.890625 -18.21875 C 11.628906 -18.21875 13.378906 -17.796875 15.140625 -16.953125 L 13.921875 -13.859375 C 13.242188 -14.171875 12.566406 -14.445312 11.890625 -14.6875 C 11.210938 -14.925781 10.546875 -15.046875 9.890625 -15.046875 Z M 9.890625 -15.046875 "/></g></g></g><g fill="#009688" fill-opacity="1"><g transform="translate(284.383184, 115.737682)"><g><path d="M 6.0625 -9.984375 L 7.296875 -9.984375 C 8.503906 -9.984375 9.394531 -10.179688 9.96875 -10.578125 C 10.539062 -10.984375 10.828125 -11.617188 10.828125 -12.484375 C 10.828125 -13.328125 10.53125 -13.929688 9.9375 -14.296875 C 9.351562 -14.660156 8.445312 -14.84375 7.21875 -14.84375 L 6.0625 -14.84375 Z M 6.0625 -6.890625 L 6.0625 0 L 2.265625 0 L 2.265625 -17.953125 L 7.5 -17.953125 C 9.9375 -17.953125 11.738281 -17.507812 12.90625 -16.625 C 14.082031 -15.738281 14.671875 -14.390625 14.671875 -12.578125 C 14.671875 -11.523438 14.378906 -10.585938 13.796875 -9.765625 C 13.210938 -8.941406 12.390625 -8.296875 11.328125 -7.828125 C 14.023438 -3.785156 15.785156 -1.175781 16.609375 0 L 12.375 0 L 8.09375 -6.890625 Z M 6.0625 -6.890625 "/></g></g></g><g fill="#009688" fill-opacity="1"><g transform="translate(303.073502, 115.737682)"><g><path d="M 2.265625 0 L 2.265625 -17.953125 L 6.0625 -17.953125 L 6.0625 0 Z M 2.265625 0 "/></g></g></g><g fill="#009688" fill-opacity="1"><g transform="translate(313.487442, 115.737682)"><g><path d="M 12.609375 0 L 2.265625 0 L 2.265625 -17.953125 L 12.609375 -17.953125 L 12.609375 -14.84375 L 6.0625 -14.84375 L 6.0625 -10.890625 L 12.140625 -10.890625 L 12.140625 -7.78125 L 6.0625 -7.78125 L 6.0625 -3.140625 L 12.609375 -3.140625 Z M 12.609375 0 "/></g></g></g><g fill="#009688" fill-opacity="1"><g transform="translate(329.66046, 115.737682)"><g><path d="M 5.640625 -2.640625 C 5.210938 -0.984375 4.488281 0.976562 3.46875 3.25 L 0.78125 3.25 C 1.3125 1.0625 1.722656 -0.992188 2.015625 -2.921875 L 5.453125 -2.921875 Z M 5.640625 -2.640625 "/></g></g></g><g fill="#009688" fill-opacity="1"><g transform="translate(339.042898, 115.737682)"><g/></g></g><g fill="#009688" fill-opacity="1"><g transform="translate(347.66403, 115.737682)"><g><path d="M 13.25 0 L 11.953125 -4.28125 L 5.40625 -4.28125 L 4.109375 0 L 0 0 L 6.34375 -18.03125 L 11 -18.03125 L 17.359375 0 Z M 11.046875 -7.46875 C 9.835938 -11.34375 9.15625 -13.53125 9 -14.03125 C 8.851562 -14.539062 8.75 -14.945312 8.6875 -15.25 C 8.414062 -14.195312 7.640625 -11.601562 6.359375 -7.46875 Z M 11.046875 -7.46875 "/></g></g></g><g fill="#009688" fill-opacity="1"><g transform="translate(367.103374, 115.737682)"><g><path d="M 6.0625 -9.5 L 7.328125 -9.5 C 8.492188 -9.5 9.367188 -9.726562 9.953125 -10.1875 C 10.535156 -10.65625 10.828125 -11.332031 10.828125 -12.21875 C 10.828125 -13.113281 10.582031 -13.773438 10.09375 -14.203125 C 9.601562 -14.628906 8.835938 -14.84375 7.796875 -14.84375 L 6.0625 -14.84375 Z M 14.671875 -12.359375 C 14.671875 -10.421875 14.066406 -8.941406 12.859375 -7.921875 C 11.648438 -6.898438 9.929688 -6.390625 7.703125 -6.390625 L 6.0625 -6.390625 L 6.0625 0 L 2.265625 0 L 2.265625 -17.953125 L 8 -17.953125 C 10.175781 -17.953125 11.832031 -17.484375 12.96875 -16.546875 C 14.101562 -15.609375 14.671875 -14.210938 14.671875 -12.359375 Z M 14.671875 -12.359375 "/></g></g></g><g fill="#009688" fill-opacity="1"><g transform="translate(384.983256, 115.737682)"><g><path d="M 6.0625 -9.984375 L 7.296875 -9.984375 C 8.503906 -9.984375 9.394531 -10.179688 9.96875 -10.578125 C 10.539062 -10.984375 10.828125 -11.617188 10.828125 -12.484375 C 10.828125 -13.328125 10.53125 -13.929688 9.9375 -14.296875 C 9.351562 -14.660156 8.445312 -14.84375 7.21875 -14.84375 L 6.0625 -14.84375 Z M 6.0625 -6.890625 L 6.0625 0 L 2.265625 0 L 2.265625 -17.953125 L 7.5 -17.953125 C 9.9375 -17.953125 11.738281 -17.507812 12.90625 -16.625 C 14.082031 -15.738281 14.671875 -14.390625 14.671875 -12.578125 C 14.671875 -11.523438 14.378906 -10.585938 13.796875 -9.765625 C 13.210938 -8.941406 12.390625 -8.296875 11.328125 -7.828125 C 14.023438 -3.785156 15.785156 -1.175781 16.609375 0 L 12.375 0 L 8.09375 -6.890625 Z M 6.0625 -6.890625 "/></g></g></g><g fill="#009688" fill-opacity="1"><g transform="translate(403.673563, 115.737682)"><g><path d="M 12.609375 0 L 2.265625 0 L 2.265625 -17.953125 L 12.609375 -17.953125 L 12.609375 -14.84375 L 6.0625 -14.84375 L 6.0625 -10.890625 L 12.140625 -10.890625 L 12.140625 -7.78125 L 6.0625 -7.78125 L 6.0625 -3.140625 L 12.609375 -3.140625 Z M 12.609375 0 "/></g></g></g><g fill="#009688" fill-opacity="1"><g transform="translate(419.846581, 115.737682)"><g><path d="M 18.1875 0 L 13.359375 0 L 5.546875 -13.578125 L 5.421875 -13.578125 C 5.578125 -11.179688 5.65625 -9.472656 5.65625 -8.453125 L 5.65625 0 L 2.265625 0 L 2.265625 -17.953125 L 7.0625 -17.953125 L 14.859375 -4.515625 L 14.953125 -4.515625 C 14.828125 -6.847656 14.765625 -8.492188 14.765625 -9.453125 L 14.765625 -17.953125 L 18.1875 -17.953125 Z M 18.1875 0 "/></g></g></g><g fill="#009688" fill-opacity="1"><g transform="translate(442.380409, 115.737682)"><g><path d="M 17.15625 -9.15625 C 17.15625 -6.195312 16.3125 -3.929688 14.625 -2.359375 C 12.945312 -0.785156 10.519531 0 7.34375 0 L 2.265625 0 L 2.265625 -17.953125 L 7.890625 -17.953125 C 10.828125 -17.953125 13.101562 -17.175781 14.71875 -15.625 C 16.34375 -14.082031 17.15625 -11.925781 17.15625 -9.15625 Z M 13.203125 -9.046875 C 13.203125 -12.910156 11.5 -14.84375 8.09375 -14.84375 L 6.0625 -14.84375 L 6.0625 -3.140625 L 7.703125 -3.140625 C 11.367188 -3.140625 13.203125 -5.109375 13.203125 -9.046875 Z M 13.203125 -9.046875 "/></g></g></g><g fill="#009688" fill-opacity="1"><g transform="translate(463.084555, 115.737682)"><g><path d="M 13.25 0 L 11.953125 -4.28125 L 5.40625 -4.28125 L 4.109375 0 L 0 0 L 6.34375 -18.03125 L 11 -18.03125 L 17.359375 0 Z M 11.046875 -7.46875 C 9.835938 -11.34375 9.15625 -13.53125 9 -14.03125 C 8.851562 -14.539062 8.75 -14.945312 8.6875 -15.25 C 8.414062 -14.195312 7.640625 -11.601562 6.359375 -7.46875 Z M 11.046875 -7.46875 "/></g></g></g><g fill="#009688" fill-opacity="1"><g transform="translate(482.523923, 115.737682)"><g><path d="M 5.109375 -5.953125 L 2.109375 -5.953125 L 1.484375 -17.953125 L 5.734375 -17.953125 Z M 1.4375 -1.75 C 1.4375 -2.4375 1.617188 -2.957031 1.984375 -3.3125 C 2.359375 -3.664062 2.894531 -3.84375 3.59375 -3.84375 C 4.28125 -3.84375 4.804688 -3.660156 5.171875 -3.296875 C 5.546875 -2.941406 5.734375 -2.425781 5.734375 -1.75 C 5.734375 -1.101562 5.546875 -0.59375 5.171875 -0.21875 C 4.796875 0.144531 4.269531 0.328125 3.59375 0.328125 C 2.90625 0.328125 2.375 0.144531 2 -0.21875 C 1.625 -0.582031 1.4375 -1.09375 1.4375 -1.75 Z M 1.4375 -1.75 "/></g></g></g></svg>